<?xml version="1.0" encoding="UTF-8" standalone="yes"?>
<svg version="1.2" width="266.667" height="266.667" viewBox="0 0 200 200" baseProfile="tiny-ps" xmlns="http://www.w3.org/2000/svg">
  <title>bimi-svg-tiny-12-ps</title>
  <path d="M93.5 48.3c-.4 3.1-.5 6.2-.3 6.9.3.7.8-1.6 1.2-5.1.4-3.5.5-6.5.2-6.8-.2-.3-.7 2-1.1 5zM102.5 45.2c-1.8 5.7-4.6 17.1-4.1 17.5.2.3 1.4-2.8 2.6-6.8 1.2-4 2.6-8.4 3.1-9.6.5-1.5.5-2.3-.2-2.3-.5 0-1.1.6-1.4 1.2zM106.2 57.8c-2.9 6.4-4.8 11.2-4.4 10.7 1.2-1.3 13.2-21.3 13.2-22 0-.3-.8-.5-1.7-.5-1.3.1-3.3 3.4-7.1 11.8zM113.5 59.7c-13 17.3-12.5 17.5 2.7 1.1 7.2-7.8 8.9-10.2 7.7-10.9-.8-.5-1.6-.9-1.9-.9-.3 0-4.2 4.8-8.5 10.7zM126 58.2c-15 13.9-18.1 17-17.7 17.4.3.4 22-14.9 25.1-17.7.9-.8-1-3.9-2.3-3.9-.3 0-2.6 1.9-5.1 4.2zM125.7 69.1c-6.5 4.3-12.6 8.3-13.5 8.8-.9.5-1.3 1.3-.9 1.7.9 1 29.7-13.7 29.7-15.2 0-1.1-2.1-3.4-2.9-3.3-.4 0-5.9 3.6-12.4 8zM129.3 75.8c-7.8 3.7-14.2 7.3-14.3 7.9 0 1.9.7 1.7 15.7-4.1 13.4-5.2 16.2-7.1 13.6-9.7-.4-.4-7.1 2.2-15 5.9zM67 71c-1.2.7.2 2.7 7 9.8 8.6 9.1 10.4 10.3 11.3 7.8.6-1.5-13.8-18.6-15.6-18.6-.7 0-1.9.5-2.7 1zM77.8 73.7c8.3 10.4 9.9 11.8 11.5 10.4 1.4-1.1 1.1-2-3.1-7.6-4.1-5.6-5.1-6.4-8-6.5h-3.4l3 3.7zM88.1 75.2c1.8 2.4 3.6 4.7 4 5.2.4.4 2.3-.3 4.3-1.7l3.6-2.4-5.9-2.7c-8.7-3.9-10-3.5-6 1.6zM58.7 74.2c-1.6 1.2-.8 2.2 8 9.8 12.5 10.9 13.2 11.5 14.5 10.2.7-.7-2.3-4.2-9.2-10.9-5.6-5.4-10.5-9.9-10.9-10.1-.4-.1-1.5.3-2.4 1zM132 83c-8.4 2.9-13.5 5.3-13.5 6.1 0 1.9.3 1.9 14.8-2.1 12.4-3.4 12.7-3.5 12.7-6.2 0-1.5-.1-2.8-.2-2.7-.2 0-6.4 2.2-13.8 4.9zM52 80.5c-1.6 1.9-2 1.5 10.7 10.3C75.9 100 78 101.1 78 99c0-1.1-22.5-20-23.8-20-.5 0-1.5.7-2.2 1.5zM47.1 88.6c-1 2.3-.6 2.6 13.5 9.7 14.8 7.6 20.1 8.6 9.7 2-3.2-2-9.5-6-13.9-8.9l-8.2-5.2-1.1 2.4zM132.7 90.5c-6.5 1.7-11.8 3.4-11.8 3.8-.1 2.7 1.2 2.8 11.6.7 6.1-1.2 11.4-2.5 11.8-3 .5-.4.7-1.6.5-2.6-.3-1.8-.9-1.7-12.1 1.1zM131.5 98.1c-4.9 1-9.1 1.8-9.2 1.9 0 0 .1.9.4 2 .4 1.3 1.1 1.9 2.2 1.6.9-.3 4.4-.8 7.9-1.1 4.7-.5 6.6-1.2 7.7-2.8 1.6-2.3 1.9-3.8.8-3.6-.5.1-4.8 1-9.8 2zM44.3 98.6c-.3.8-.2 1.9.3 2.4.9.9 27.3 9 29 9 1.9-.1-25.9-13-28.1-13-.3 0-.8.7-1.2 1.6zM126.8 105.7c-2.6.4-2.8.8-2.8 4.9v4.5l4.3-2.9c2.3-1.6 5.1-3.9 6.1-5.1 1.9-2.1 1.9-2.1-1.5-2-1.9.1-4.6.4-6.1.6zM44 109.9c0 1.7 1 2 6.8 2.6 3.7.3 10 1.1 14.1 1.6s7.6.7 7.8.5c.4-.4-25.4-6.6-27.4-6.6-.7 0-1.3.9-1.3 1.9zM138.5 114.7c4.6 4.3 16.5 12.7 16.5 11.6 0-.4-3.2-3.1-7.2-5.8-7.6-5.3-11-7.4-9.3-5.8zM152 115.4c0 .2.7.7 1.6 1 .8.3 1.2.2.9-.4-.6-1-2.5-1.4-2.5-.6zM79 120.8c0 2 .5 5.5 1.1 7.7l1.2 4 2.3-5c1.3-2.8 2.4-5.5 2.4-6.1 0-.6-1.6-1.8-3.5-2.7L79 117v3.8zM141.1 126.2c4 4.6 7.4 8.5 7.5 8.7.2.1.8 0 1.4-.4.8-.5-1.5-3.5-6.6-8.6-4.4-4.3-8.3-7.9-8.8-7.9-.4 0 2.5 3.7 6.5 8.2zM46 120.3c0 1 1.8 1.1 8.3.5 15-1.3 15.3-1.5 3.5-1.6-9.1-.2-11.8.1-11.8 1.1zM125 121.4c0 .9 8.2 28 8.7 28.5.2.3 1-.2 1.9-1 1.3-1.4.9-2.9-4.1-14.5-5.5-12.5-6.5-14.5-6.5-13zM132.3 125.2c1.3 2.4 4.1 7.4 6.2 11.1 3 5.5 4 6.6 5.1 5.6 1.2-1 1.1-1.7-.9-4.3-1.3-1.7-4.5-6.1-7.1-9.9-5.4-7.6-7-8.8-3.3-2.5zM85.6 129.1c-2.7 6.7-2.8 7.3-1.4 10.2l1.5 3.1 3.4-9.4c1.8-5.2 3.4-9.7 3.4-10 0-.3-.9-.6-2-.8-1.6-.2-2.5 1.1-4.9 6.9zM120.4 125c.3 1.9 1 9.2 1.7 16.2 1.1 11.1 1.5 12.8 3 12.8 1 0 2-.4 2.4-.9.6-1.1-5.3-27.8-6.7-30.1-.6-1-.8-.4-.4 2zM95.4 124.1c-.3.6-2.1 5.5-4 11.1-3.3 9.6-3.4 10.2-1.7 12 2.1 2.4 2.3 2.1 5.7-10.2 1.5-5.2 2.9-10.2 3.2-11.1.5-1.9-2.2-3.4-3.2-1.8zM114.7 127.5c-.4 2.7-.8 10.4-.9 17-.3 11.4-.2 12 1.7 12s2-.6 1.7-14.9c-.4-16.3-1.5-22.7-2.5-14.1zM101 128.2c-.6 2.4-2.3 8.6-3.6 13.8-2.4 8.9-2.5 9.5-.8 10.7 1 .7 2.1 1.3 2.4 1.3.5 0 6-26.9 6-29.3 0-.4-.7-.7-1.5-.7s-1.9 1.7-2.5 4.2zM108.5 125.2c-.2.7-1.4 7.9-2.8 16-2.3 14.6-2.3 14.7-.4 15.2 1.1.3 2.4.3 2.7.1.4-.2 1-4.8 1.4-10.2.3-5.4.9-12.6 1.3-16.1.4-4.4.2-6.2-.6-6.2-.6 0-1.3.6-1.6 1.2zM56.3 126.8c-4 .9-7.3 2-7.3 2.5 0 1.1 4.4.3 12.5-2.2 7.2-2.3 4.7-2.4-5.2-.3zM57.5 135.6c-2.7 1.3-3.9 2.1-2.5 1.8 2.9-.7 10-4.3 8.5-4.3-.5 0-3.2 1.1-6 2.5z"/>
</svg>