<?xml version="1.0" standalone="no"?>
<!DOCTYPE svg PUBLIC "-//W3C//DTD SVG 20010904//EN"
 "http://www.w3.org/TR/2001/REC-SVG-20010904/DTD/svg10.dtd">
<svg version="1.0" xmlns="http://www.w3.org/2000/svg"
 width="200.000000pt" height="200.000000pt" viewBox="0 0 200.000000 200.000000"
 preserveAspectRatio="xMidYMid meet">

<g transform="translate(0.000000,200.000000) scale(0.100000,-0.100000)"
fill="#000000" stroke="none">
<path d="M935 1517 c-4 -31 -5 -62 -3 -69 3 -7 8 16 12 51 4 35 5 65 2 68 -2
3 -7 -20 -11 -50z"/>
<path d="M1025 1548 c-18 -57 -46 -171 -41 -175 2 -3 14 28 26 68 12 40 26 84
31 96 5 15 5 23 -2 23 -5 0 -11 -6 -14 -12z"/>
<path d="M1062 1422 c-29 -64 -48 -112 -44 -107 12 13 132 213 132 220 0 3 -8
5 -17 5 -13 -1 -33 -34 -71 -118z"/>
<path d="M1135 1403 c-130 -173 -125 -175 27 -11 72 78 89 102 77 109 -8 5
-16 9 -19 9 -3 0 -42 -48 -85 -107z"/>
<path d="M1260 1418 c-150 -139 -181 -170 -177 -174 3 -4 220 149 251 177 9 8
-10 39 -23 39 -3 0 -26 -19 -51 -42z"/>
<path d="M1257 1309 c-65 -43 -126 -83 -135 -88 -9 -5 -13 -13 -9 -17 9 -10
297 137 297 152 0 11 -21 34 -29 33 -4 0 -59 -36 -124 -80z"/>
<path d="M1293 1242 c-78 -37 -142 -73 -143 -79 0 -19 7 -17 157 41 134 52
162 71 136 97 -4 4 -71 -22 -150 -59z"/>
<path d="M670 1290 c-12 -7 2 -27 70 -98 86 -91 104 -103 113 -78 6 15 -138
186 -156 186 -7 0 -19 -5 -27 -10z"/>
<path d="M778 1263 c83 -104 99 -118 115 -104 14 11 11 20 -31 76 -41 56 -51
64 -80 65 l-34 0 30 -37z"/>
<path d="M881 1248 c18 -24 36 -47 40 -52 4 -4 23 3 43 17 l36 24 -59 27 c-87
39 -100 35 -60 -16z"/>
<path d="M587 1258 c-16 -12 -8 -22 80 -98 125 -109 132 -115 145 -102 7 7
-23 42 -92 109 -56 54 -105 99 -109 101 -4 1 -15 -3 -24 -10z"/>
<path d="M1320 1170 c-84 -29 -135 -53 -135 -61 0 -19 3 -19 148 21 124 34
127 35 127 62 0 15 -1 28 -2 27 -2 0 -64 -22 -138 -49z"/>
<path d="M520 1195 c-16 -19 -20 -15 107 -103 132 -92 153 -103 153 -82 0 11
-225 200 -238 200 -5 0 -15 -7 -22 -15z"/>
<path d="M471 1114 c-10 -23 -6 -26 135 -97 148 -76 201 -86 97 -20 -32 20
-95 60 -139 89 l-82 52 -11 -24z"/>
<path d="M1327 1095 c-65 -17 -118 -34 -118 -38 -1 -27 12 -28 116 -7 61 12
114 25 118 30 5 4 7 16 5 26 -3 18 -9 17 -121 -11z"/>
<path d="M1315 1019 c-49 -10 -91 -18 -92 -19 0 0 1 -9 4 -20 4 -13 11 -19 22
-16 9 3 44 8 79 11 47 5 66 12 77 28 16 23 19 38 8 36 -5 -1 -48 -10 -98 -20z"/>
<path d="M443 1014 c-3 -8 -2 -19 3 -24 9 -9 273 -90 290 -90 19 1 -259 130
-281 130 -3 0 -8 -7 -12 -16z"/>
<path d="M1268 943 c-26 -4 -28 -8 -28 -49 l0 -45 43 29 c23 16 51 39 61 51
19 21 19 21 -15 20 -19 -1 -46 -4 -61 -6z"/>
<path d="M440 901 c0 -17 10 -20 68 -26 37 -3 100 -11 141 -16 41 -5 76 -7 78
-5 4 4 -254 66 -274 66 -7 0 -13 -9 -13 -19z"/>
<path d="M1385 853 c46 -43 165 -127 165 -116 0 4 -32 31 -72 58 -76 53 -110
74 -93 58z"/>
<path d="M1520 846 c0 -2 7 -7 16 -10 8 -3 12 -2 9 4 -6 10 -25 14 -25 6z"/>
<path d="M790 792 c0 -20 5 -55 11 -77 l12 -40 23 50 c13 28 24 55 24 61 0 6
-16 18 -35 27 l-35 17 0 -38z"/>
<path d="M1411 738 c40 -46 74 -85 75 -87 2 -1 8 0 14 4 8 5 -15 35 -66 86
-44 43 -83 79 -88 79 -4 0 25 -37 65 -82z"/>
<path d="M460 797 c0 -10 18 -11 83 -5 150 13 153 15 35 16 -91 2 -118 -1
-118 -11z"/>
<path d="M1250 786 c0 -9 82 -280 87 -285 2 -3 10 2 19 10 13 14 9 29 -41 145
-55 125 -65 145 -65 130z"/>
<path d="M1323 748 c13 -24 41 -74 62 -111 30 -55 40 -66 51 -56 12 10 11 17
-9 43 -13 17 -45 61 -71 99 -54 76 -70 88 -33 25z"/>
<path d="M856 709 c-27 -67 -28 -73 -14 -102 l15 -31 34 94 c18 52 34 97 34
100 0 3 -9 6 -20 8 -16 2 -25 -11 -49 -69z"/>
<path d="M1204 750 c3 -19 10 -92 17 -162 11 -111 15 -128 30 -128 10 0 20 4
24 9 6 11 -53 278 -67 301 -6 10 -8 4 -4 -20z"/>
<path d="M954 759 c-3 -6 -21 -55 -40 -111 -33 -96 -34 -102 -17 -120 21 -24
23 -21 57 102 15 52 29 102 32 111 5 19 -22 34 -32 18z"/>
<path d="M1147 725 c-4 -27 -8 -104 -9 -170 -3 -114 -2 -120 17 -120 19 0 20
6 17 149 -4 163 -15 227 -25 141z"/>
<path d="M1010 718 c-6 -24 -23 -86 -36 -138 -24 -89 -25 -95 -8 -107 10 -7
21 -13 24 -13 5 0 60 269 60 293 0 4 -7 7 -15 7 -8 0 -19 -17 -25 -42z"/>
<path d="M1085 748 c-2 -7 -14 -79 -28 -160 -23 -146 -23 -147 -4 -152 11 -3
24 -3 27 -1 4 2 10 48 14 102 3 54 9 126 13 161 4 44 2 62 -6 62 -6 0 -13 -6
-16 -12z"/>
<path d="M563 732 c-40 -9 -73 -20 -73 -25 0 -11 44 -3 125 22 72 23 47 24
-52 3z"/>
<path d="M575 644 c-27 -13 -39 -21 -25 -18 29 7 100 43 85 43 -5 0 -32 -11
-60 -25z"/>
</g>
</svg>
